
<svg width="340px" height="206px" viewBox="0 0 340 206" version="1.1" xmlns="http://www.w3.org/2000/svg" xmlns:xlink="http://www.w3.org/1999/xlink">
    <defs>
        <linearGradient x1="50%" y1="50%" x2="85.9532299%" y2="100%" id="linearGradient-1">
            <stop stop-color="#3023AE" offset="0%"></stop>
            <stop stop-color="#C86DD7" offset="100%"></stop>
        </linearGradient>
        <linearGradient x1="0%" y1="0%" x2="101.999998%" y2="100.999999%" id="linearGradient-2">
            <stop stop-color="#3023AE" offset="0%"></stop>
            <stop stop-color="#C86DD7" offset="100%"></stop>
        </linearGradient>
    </defs>
    <g id="Elements" stroke="none" stroke-width="1" fill="none" fill-rule="evenodd">
        <g id="Elements-Collection---Light" transform="translate(-1616.000000, -2534.000000)">
            <g id="laptop-3" transform="translate(1614.000000, 2533.000000)">
                <path d="M103.86343,205.780496 L5.384264,162.391176 C2.856926,161.277856 1.711116,158.326648 2.824444,155.799552 C3.441304,154.399608 4.664892,153.359088 6.145952,152.975432 L194.680122,104.127048 L296.278156,150.396024 L103.86343,205.780496 Z" id="" fill="url(#linearGradient-1)"></path>
                <path d="M333.982769,1.979328 L155.435907,36.350704 C149.668359,37.4608 145.080515,41.834208 143.695032,47.540896 L105.158911,206.246976 L288.415746,160.598256 C292.854454,159.492736 296.384962,156.13624 297.713563,151.759504 L340.859038,9.613968 C341.821013,6.4428 340.030664,3.092128 336.86009,2.12992 C335.92799,1.846832 334.939964,1.79504 333.982769,1.979328 Z" id="" fill="url(#linearGradient-2)"></path>
                <path d="M235.93058,116.352854 C227.398085,121.972724 217.79414,123.205922 212.78213,115.595502 C207.769175,107.985041 213.726635,97.866815 222.260255,92.247027 C230.79284,86.627198 239.40512,85.522207 244.416995,93.132586 C249.42995,100.743088 244.4642,110.733107 235.93058,116.352854 Z" id="" fill="#D6E3FA"></path>
            </g>
        </g>
    </g>
</svg>