<svg xmlns="http://www.w3.org/2000/svg" viewBox="0 0 494 494"><defs><style>.a,.b{fill:#fff;}.a{opacity:0.99;}.b{opacity:0.5;}</style></defs><title>logo</title><path class="a" d="M256,9C119.59,9,9,119.59,9,256S119.59,503,256,503,503,392.41,503,256,392.41,9,256,9Zm70.65,366.48h-156c-3.3,0-4.53-2.8-2.88-5.66l78.14-135.59a3.88,3.88,0,0,1,3.24-2.14,7.32,7.32,0,0,1,2.76,2.37l77.78,135.36C331.3,372.68,330,375.48,326.65,375.48Zm85.12,0H371.24a8.66,8.66,0,0,1-6.68-4.07L251.27,174.84a4,4,0,0,0-2.16-1.6,2.74,2.74,0,0,0-2.37,1.67L133.1,371.41a8.86,8.86,0,0,1-6.8,4.07H86.73c-2.49,0-3.39-1.91-2.15-4.07L247.22,89.78c.47-.81.74-1.32,1.89-1.52,0-.33,1.86.24,2.64,1.59L414,371.41C415.28,373.57,414.27,375.48,411.77,375.48Z" transform="translate(-9 -9)"/><path class="b" d="M247.22,89.78,84.58,371.41c-1.24,2.16-.34,4.07,2.15,4.07H126.3a8.86,8.86,0,0,0,6.8-4.07l113.64-196.5a2.74,2.74,0,0,1,2.37-1.67v-85C248,88.46,247.69,89,247.22,89.78Z" transform="translate(-9 -9)"/><path class="b" d="M245.87,234.23,167.73,369.82c-1.65,2.86-.42,5.66,2.88,5.66h78.5V232.09A3.88,3.88,0,0,0,245.87,234.23Z" transform="translate(-9 -9)"/></svg>